<svg xmlns="http://www.w3.org/2000/svg" xmlns:xlink="http://www.w3.org/1999/xlink" width="96" zoomAndPan="magnify" viewBox="0 0 72 72" height="96" preserveAspectRatio="xMidYMid meet" version="1.0"><defs><g/><clipPath id="a5ae10a570"><path d="M 36 0 C 16.117188 0 0 16.117188 0 36 C 0 55.882812 16.117188 72 36 72 C 55.882812 72 72 55.882812 72 36 C 72 16.117188 55.882812 0 36 0 Z M 36 0 " clip-rule="nonzero"/></clipPath></defs><g clip-path="url(#a5ae10a570)"><rect x="-7.2" width="86.4" fill="#f6c840" y="-7.2" height="86.4" fill-opacity="1"/></g><g fill="#000000" fill-opacity="1"><g transform="translate(25.324218, 47.25)"><g><path d="M 6.015625 0 C 5.609375 0 5.269531 -0.132812 5 -0.40625 C 4.726562 -0.675781 4.59375 -1.015625 4.59375 -1.421875 C 4.59375 -1.835938 4.726562 -2.1875 5 -2.46875 C 5.269531 -2.75 5.609375 -2.890625 6.015625 -2.890625 L 10.0625 -2.890625 L 10.0625 -20.125 L 6.59375 -18.421875 C 6.28125 -18.285156 6.019531 -18.21875 5.8125 -18.21875 C 5.382812 -18.21875 5.035156 -18.351562 4.765625 -18.625 C 4.492188 -18.90625 4.359375 -19.257812 4.359375 -19.6875 C 4.359375 -20.320312 4.648438 -20.785156 5.234375 -21.078125 L 9.859375 -23.5 C 10.179688 -23.65625 10.5 -23.734375 10.8125 -23.734375 L 11.53125 -23.734375 C 11.976562 -23.734375 12.359375 -23.570312 12.671875 -23.25 C 12.992188 -22.9375 13.15625 -22.550781 13.15625 -22.09375 L 13.15625 -2.890625 L 16.53125 -2.890625 C 16.9375 -2.890625 17.28125 -2.75 17.5625 -2.46875 C 17.84375 -2.1875 17.984375 -1.835938 17.984375 -1.421875 C 17.984375 -1.015625 17.84375 -0.675781 17.5625 -0.40625 C 17.28125 -0.132812 16.9375 0 16.53125 0 Z M 6.015625 0 "/></g></g></g></svg>