<svg xmlns="http://www.w3.org/2000/svg" xmlns:xlink="http://www.w3.org/1999/xlink" width="96" zoomAndPan="magnify" viewBox="0 0 72 72" height="96" preserveAspectRatio="xMidYMid meet" version="1.0"><defs><g/><clipPath id="07eead96eb"><path d="M 36 0 C 16.117188 0 0 16.117188 0 36 C 0 55.882812 16.117188 72 36 72 C 55.882812 72 72 55.882812 72 36 C 72 16.117188 55.882812 0 36 0 Z M 36 0 " clip-rule="nonzero"/></clipPath></defs><g clip-path="url(#07eead96eb)"><rect x="-7.2" width="86.4" fill="#f6c840" y="-7.2" height="86.4" fill-opacity="1"/></g><g fill="#000000" fill-opacity="1"><g transform="translate(25.324218, 47.25)"><g><path d="M 4.015625 0 C 3.492188 0 3.0625 -0.160156 2.71875 -0.484375 C 2.375 -0.816406 2.203125 -1.242188 2.203125 -1.765625 C 2.203125 -2.941406 2.546875 -4.03125 3.234375 -5.03125 C 3.929688 -6.03125 4.769531 -6.910156 5.75 -7.671875 C 6.738281 -8.429688 8.039062 -9.332031 9.65625 -10.375 C 11.039062 -11.257812 12.140625 -12.003906 12.953125 -12.609375 C 13.765625 -13.222656 14.441406 -13.890625 14.984375 -14.609375 C 15.535156 -15.335938 15.8125 -16.113281 15.8125 -16.9375 C 15.8125 -18.226562 15.382812 -19.25 14.53125 -20 C 13.6875 -20.757812 12.320312 -21.140625 10.4375 -21.140625 C 8.394531 -21.140625 6.457031 -20.734375 4.625 -19.921875 C 4.394531 -19.804688 4.179688 -19.75 3.984375 -19.75 C 3.617188 -19.75 3.3125 -19.875 3.0625 -20.125 C 2.8125 -20.375 2.6875 -20.691406 2.6875 -21.078125 C 2.6875 -21.648438 2.9375 -22.070312 3.4375 -22.34375 C 5.75 -23.5 8.265625 -24.078125 10.984375 -24.078125 C 12.429688 -24.078125 13.75 -23.785156 14.9375 -23.203125 C 16.132812 -22.628906 17.078125 -21.816406 17.765625 -20.765625 C 18.453125 -19.722656 18.796875 -18.523438 18.796875 -17.171875 C 18.796875 -15.828125 18.40625 -14.582031 17.625 -13.4375 C 16.84375 -12.300781 15.90625 -11.300781 14.8125 -10.4375 C 13.726562 -9.570312 12.316406 -8.578125 10.578125 -7.453125 C 8.984375 -6.378906 7.785156 -5.519531 6.984375 -4.875 C 6.179688 -4.226562 5.617188 -3.566406 5.296875 -2.890625 L 17.140625 -2.890625 C 17.546875 -2.890625 17.890625 -2.75 18.171875 -2.46875 C 18.453125 -2.1875 18.59375 -1.835938 18.59375 -1.421875 C 18.59375 -1.015625 18.453125 -0.675781 18.171875 -0.40625 C 17.890625 -0.132812 17.546875 0 17.140625 0 Z M 4.015625 0 "/></g></g></g></svg>