<svg xmlns="http://www.w3.org/2000/svg" xmlns:xlink="http://www.w3.org/1999/xlink" width="96" zoomAndPan="magnify" viewBox="0 0 72 72" height="96" preserveAspectRatio="xMidYMid meet" version="1.0"><defs><g/><clipPath id="e76d32f5b6"><path d="M 36 0 C 16.117188 0 0 16.117188 0 36 C 0 55.882812 16.117188 72 36 72 C 55.882812 72 72 55.882812 72 36 C 72 16.117188 55.882812 0 36 0 Z M 36 0 " clip-rule="nonzero"/></clipPath></defs><g clip-path="url(#e76d32f5b6)"><rect x="-7.2" width="86.4" fill="#f6c840" y="-7.2" height="86.4" fill-opacity="1"/></g><g fill="#000000" fill-opacity="1"><g transform="translate(25.324218, 47.25)"><g><path d="M 10 0.34375 C 7.476562 0.34375 5.109375 -0.109375 2.890625 -1.015625 C 2.617188 -1.128906 2.398438 -1.296875 2.234375 -1.515625 C 2.078125 -1.734375 2 -2 2 -2.3125 C 2 -2.695312 2.128906 -3.03125 2.390625 -3.3125 C 2.648438 -3.59375 2.972656 -3.734375 3.359375 -3.734375 C 3.566406 -3.734375 3.785156 -3.691406 4.015625 -3.609375 C 5.640625 -2.953125 7.441406 -2.625 9.421875 -2.625 C 11.179688 -2.625 12.664062 -2.910156 13.875 -3.484375 C 15.09375 -4.066406 15.703125 -5.035156 15.703125 -6.390625 C 15.703125 -9.242188 13.195312 -10.671875 8.1875 -10.671875 L 7.65625 -10.671875 C 7.269531 -10.671875 6.929688 -10.8125 6.640625 -11.09375 C 6.359375 -11.382812 6.21875 -11.722656 6.21875 -12.109375 C 6.21875 -12.492188 6.359375 -12.828125 6.640625 -13.109375 C 6.929688 -13.390625 7.269531 -13.53125 7.65625 -13.53125 L 7.859375 -13.53125 C 10.117188 -13.53125 11.847656 -13.875 13.046875 -14.5625 C 14.253906 -15.257812 14.859375 -16.285156 14.859375 -17.640625 C 14.859375 -18.734375 14.40625 -19.597656 13.5 -20.234375 C 12.59375 -20.867188 11.253906 -21.1875 9.484375 -21.1875 C 7.578125 -21.1875 5.820312 -20.8125 4.21875 -20.0625 C 3.988281 -19.96875 3.785156 -19.921875 3.609375 -19.921875 C 3.265625 -19.921875 2.96875 -20.039062 2.71875 -20.28125 C 2.46875 -20.519531 2.34375 -20.820312 2.34375 -21.1875 C 2.34375 -21.707031 2.570312 -22.09375 3.03125 -22.34375 C 5.207031 -23.5 7.453125 -24.078125 9.765625 -24.078125 C 12.367188 -24.078125 14.382812 -23.539062 15.8125 -22.46875 C 17.238281 -21.40625 17.953125 -19.898438 17.953125 -17.953125 C 17.953125 -16.390625 17.5625 -15.160156 16.78125 -14.265625 C 16 -13.367188 15.019531 -12.707031 13.84375 -12.28125 C 15.132812 -11.976562 16.28125 -11.359375 17.28125 -10.421875 C 18.289062 -9.484375 18.796875 -8.082031 18.796875 -6.21875 C 18.796875 -4.132812 17.972656 -2.519531 16.328125 -1.375 C 14.691406 -0.226562 12.582031 0.34375 10 0.34375 Z M 10 0.34375 "/></g></g></g></svg>